<?xml version="1.0" encoding="UTF-8"?>
<svg id="Layer_2" data-name="Layer 2" xmlns="http://www.w3.org/2000/svg" viewBox="0 0 1080 915.25">
  <defs>
    <style>
      .cls-1 {
        fill: #fefefe;
      }

      .cls-1, .cls-2, .cls-3 {
        stroke-width: 0px;
      }

      .cls-2 {
        fill: #1a93e1;
      }

      .cls-3 {
        fill: #d22722;
      }
    </style>
  </defs>
  <g id="Layer_1-2" data-name="Layer 1">
    <g>
      <polygon class="cls-2" points="219.86 755.56 860.06 755.56 839.93 776.43 240 776.43 219.86 755.56"/>
      <polygon class="cls-2" points="900.39 713.79 880.25 734.67 199.71 734.67 179.57 713.79 900.39 713.79"/>
      <polygon class="cls-2" points="705.64 165.97 540.02 0 374.36 165.97 0 541.13 165.66 707.11 540.02 331.94 914.34 707.11 1080 541.13 705.64 165.97"/>
      <path class="cls-2" d="m772.69,571.06c-15.25,13.56-32.47,22.11-48.16,32.89-2.43,1.67-5.31,3.7-8.33,1.3-3.72-2.95-1.59-6.28,0-9.34,2.42-4.65,2.87-8.82-1.15-13.07-18.63-19.57-39.63-36.37-60.97-52.77-.88-.68-2.4-.48-5.58-1.04,16.24,48.87,9.19,92.57-27.13,129.11-22.5,22.63-50.61,33.97-82.35,32.89-40.78-1.39-73.49-19.39-95.79-54.04-22.22-34.54-22.66-71.72-8.46-111.2-10.91,2.97-15.07,10.21-20.76,15.54-19.35,18.07-38.97,35.88-58.16,54.11-5.2,4.94-8.49,5.02-13.89-.05-25.26-23.71-25.77-23.91-1.28-47.08,34.05-32.2,67.23-65.59,110.42-86.11,68.33-32.47,134.95-30.31,199.51,10.01,27.31,17.04,52.94,36.26,75.31,59.75,13.73,14.42,28.96,27.33,46.82,39.08l-.04.02Zm-240.88-122.92c-29.09-1.48-65.77,12.01-99.85,33.41-34.78,21.82-63.1,51.47-93.5,78.66-10.49,9.39-5.78,14.11.75,21.75,7.19,8.44,11.64,7.34,19.53.13,25.22-23.03,48.58-48.2,76.28-68.42,3.88-2.84,8.22-8.77,13.53-4.81,6.28,4.69-.33,9.5-2.43,13.45-12.52,23.6-16.68,48.6-11,74.48,10.05,45.78,39.19,74.15,84.33,83.91,43.36,9.37,80.29-4.94,107.12-40.07,27.9-36.52,29.98-76.48,9.37-117.63-1.74-3.5-6.74-7.07-2.14-11.42,4.3-4.1,8.53-.22,11.59,2.2,28.46,22.5,59.2,42.52,80.8,72.71,1.24,1.72,2.03,4.3,4.72,3.15,9.21-3.95,17.92-8.88,25.21-15.8,2.97-2.8-.7-4.58-2.42-6.06-34.1-29.42-64.27-63.39-103.46-86.91-32.99-19.81-67.34-33.75-118.43-32.67l.02-.04Zm116.11,79.21c.29.31.59.62.88.93.29-.31.59-.62.86-.92-.44-.29-.9-.59-1.34-.88-.15.31-.29.6-.4.88v-.02Z"/>
      <path class="cls-2" d="m632.18,571.47c-.13,52.7-40.53,95.55-90.1,95.57-50.14.02-90.52-43.22-90.28-96.67.24-52.66,40.71-94.95,90.74-94.78,49.63.15,89.79,43.11,89.66,95.88h-.02Zm-54.24-71.77c-6.94.92-11.31,4.76-11.29,11.83.02,7.16,4.7,11.48,11.55,11.48s11.5-4.7,11.46-11.64c-.04-6.97-4.74-10.75-11.7-11.66h-.02Z"/>
      <path class="cls-1" d="m577.95,499.71c6.96.92,11.66,4.69,11.7,11.66.04,6.94-4.52,11.62-11.46,11.64-6.85,0-11.53-4.32-11.55-11.48-.02-7.07,4.36-10.93,11.29-11.83h.02Z"/>
      <polygon class="cls-3" points="633.14 127.11 569.56 127.11 569.56 63.39 510.44 63.39 510.44 127.11 446.86 127.11 446.86 186.35 510.44 186.35 510.44 250.07 569.56 250.07 569.56 186.35 633.14 186.35 633.14 127.11"/>
      <g>
        <path class="cls-2" d="m247.47,861.51c2.65-1.15,4.76-3,6.35-5.56s2.4-5.64,2.4-9.28c0-5.56-1.94-9.81-5.8-12.72s-8.97-4.36-15.32-4.36h-21.82v68.63h23.61c4.7,0,8.79-.77,12.23-2.29s6.11-3.79,7.98-6.77,2.82-6.66,2.82-11.02-1.04-7.94-3.13-10.85-5.2-4.85-9.34-5.77h.02Zm-20.7-20.96h7.18c2.47,0,4.56.62,6.22,1.89s2.53,3.39,2.53,6.37-.84,5.09-2.54,6.61-3.77,2.27-6.21,2.27h-7.18v-17.13Zm18.03,42.34c-.93,1.45-2.2,2.45-3.79,3.04s-3.37.86-5.35.86h-8.9v-18.87h8.86c2.95,0,5.45.7,7.51,2.09s3.08,3.68,3.08,6.88c0,2.54-.46,4.54-1.39,5.99l-.02.02Z"/>
        <path class="cls-2" d="m292.33,902.72c-2.31,0-4.06.59-5.29,1.76s-1.83,2.67-1.83,4.5.6,3.26,1.83,4.47,2.98,1.81,5.29,1.81,4.03-.6,5.24-1.81,1.83-2.69,1.83-4.47-.6-3.33-1.83-4.5-2.97-1.76-5.24-1.76Z"/>
        <polygon class="cls-2" points="271.43 898.23 312.17 898.23 312.17 887.21 284.92 887.21 284.92 868.45 309.59 868.45 309.59 857.79 284.92 857.79 284.92 840.66 312.17 840.66 312.17 829.6 271.43 829.6 271.43 898.23"/>
        <polygon class="cls-2" points="291.84 816.39 297.79 823.99 307.09 823.99 297.62 809.93 286.13 809.93 276.63 823.99 285.87 823.99 291.84 816.39"/>
        <polygon class="cls-2" points="364.99 877.27 339.05 829.6 325.04 829.6 325.04 898.23 337.42 898.23 337.42 850.31 363.47 898.23 377.51 898.23 377.51 829.6 364.99 829.6 364.99 877.27"/>
        <polygon class="cls-2" points="432 856.77 405.84 856.77 405.84 829.6 392.35 829.6 392.35 898.23 405.84 898.23 405.84 868.59 432 868.59 432 898.23 445.53 898.23 445.53 829.6 432 829.6 432 856.77"/>
        <polygon class="cls-2" points="500.22 884.72 486.27 829.6 471.87 829.6 492.13 898.23 508.09 898.23 528.8 829.6 514.35 829.6 500.22 884.72"/>
        <rect class="cls-2" x="536.43" y="829.6" width="13.49" height="68.63"/>
        <polygon class="cls-2" points="585.18 816.39 591.13 823.99 600.44 823.99 590.98 809.93 579.48 809.93 569.97 823.99 579.23 823.99 585.18 816.39"/>
        <polygon class="cls-2" points="564.77 898.23 605.53 898.23 605.53 887.21 578.26 887.21 578.26 868.45 602.93 868.45 602.93 857.79 578.26 857.79 578.26 840.66 605.53 840.66 605.53 829.6 564.77 829.6 564.77 898.23"/>
        <path class="cls-2" d="m585.69,902.72c-2.31,0-4.06.59-5.29,1.76s-1.83,2.67-1.83,4.5.6,3.26,1.83,4.47,2.98,1.81,5.29,1.81,4.03-.6,5.24-1.81,1.83-2.69,1.83-4.47-.6-3.33-1.83-4.5-2.97-1.76-5.24-1.76Z"/>
        <polygon class="cls-2" points="658.34 877.27 632.39 829.6 618.4 829.6 618.4 898.23 630.76 898.23 630.76 850.31 656.8 898.23 670.84 898.23 670.84 829.6 658.34 829.6 658.34 877.27"/>
        <polygon class="cls-2" points="735.72 861.44 719.94 829.6 704.53 829.6 704.53 898.23 717.19 898.23 717.19 848.79 731.09 876.19 739.53 876.19 753.11 848.77 753.11 898.23 766.2 898.23 766.2 829.6 751.59 829.6 735.72 861.44"/>
        <path class="cls-2" d="m802.31,823.95c4.41,0,7.8-1.28,10.18-3.88s3.72-6.06,4.03-10.4h-6.26c-.24,1.87-.77,3.33-1.57,4.41s-1.79,1.83-2.93,2.27-2.29.66-3.44.66c-1.26,0-2.43-.24-3.57-.73s-2.07-1.28-2.82-2.34-1.24-2.49-1.45-4.27h-6.32c.27,4.48,1.61,7.98,4.03,10.51,2.42,2.53,5.78,3.77,10.12,3.77h0Z"/>
        <polygon class="cls-2" points="814.67 796.51 804.75 796.51 798.28 809.67 805.11 809.67 814.67 796.51"/>
        <path class="cls-2" d="m795.25,829.6l-21.53,68.63h13.89l4.43-15.85h20.56l4.37,15.85h13.99l-21.62-68.63h-14.09Zm-.2,41.3l7.23-28.13,7.43,28.13h-14.66Z"/>
        <polygon class="cls-2" points="828.16 829.6 828.16 840.72 844.08 840.72 844.08 898.23 857.56 898.23 857.56 840.72 873.34 840.72 873.34 829.6 828.16 829.6"/>
      </g>
    </g>
  </g>
</svg>